<?xml version="1.0" standalone="no"?>
<!DOCTYPE svg PUBLIC "-//W3C//DTD SVG 20010904//EN"
 "http://www.w3.org/TR/2001/REC-SVG-20010904/DTD/svg10.dtd">
<svg version="1.0" xmlns="http://www.w3.org/2000/svg"
 width="2000.000000pt" height="2000.000000pt" viewBox="0 0 2000.000000 2000.000000"
 preserveAspectRatio="xMidYMid meet">

<g transform="translate(0.000000,2000.000000) scale(0.100000,-0.100000)"
fill="#000000" stroke="none">
<path d="M13850 19921 c0 -88 37 -1718 50 -2211 5 -206 13 -498 16 -647 6
-222 10 -273 21 -273 7 0 16 7 19 15 3 8 1 186 -5 397 -15 493 -37 1420 -52
2186 -12 570 -14 602 -31 602 -16 0 -18 -9 -18 -69z"/>
<path d="M14444 19873 c3 -65 8 -208 11 -318 8 -260 29 -800 60 -1500 13 -308
28 -664 31 -792 l7 -231 -44 -22 c-57 -30 -119 -71 -119 -80 0 -4 24 -23 53
-43 28 -20 67 -50 86 -67 l34 -31 -7 -187 c-13 -323 -41 -473 -97 -502 -33
-18 -148 -7 -202 19 -31 15 -51 19 -66 13 -21 -7 -19 -10 26 -34 102 -55 238
-60 288 -11 51 52 74 174 82 451 3 116 9 212 14 212 22 0 116 -173 149 -275 7
-22 14 -43 17 -47 5 -9 218 65 307 107 148 70 285 177 313 245 24 56 54 769
34 794 -24 28 84 96 155 96 30 0 56 23 48 43 -5 15 -22 17 -128 18 -66 1 -132
0 -146 0 -33 -3 -59 -34 -66 -81 -4 -24 -13 -40 -23 -43 -11 -2 -30 -35 -49
-83 -53 -131 -82 -265 -95 -431 l-11 -151 -58 -4 c-32 -2 -58 0 -58 5 0 4 11
24 25 45 33 50 74 162 90 247 8 39 17 139 21 222 6 136 5 153 -10 159 -22 9
-20 40 8 100 23 49 46 73 116 117 36 24 50 54 30 67 -11 7 -185 -21 -222 -35
-22 -9 -24 -16 -38 -126 -11 -88 -14 -95 -43 -114 -71 -46 -147 -259 -147
-410 l0 -82 -112 -40 -113 -40 -7 161 c-32 695 -86 2036 -103 2569 -7 197 -8
207 -27 207 -19 0 -20 -5 -14 -117z"/>
<path d="M11785 17801 c-268 -154 -597 -860 -909 -1949 -77 -268 -226 -847
-226 -876 0 -22 88 -116 160 -171 174 -133 393 -221 685 -276 142 -27 455 -37
616 -20 389 41 726 178 921 374 96 97 97 99 67 220 l-26 102 -61 -62 c-48 -50
-67 -63 -91 -63 -46 0 -68 38 -52 90 15 51 93 155 131 175 16 8 30 20 30 27 0
12 -120 454 -152 561 l-20 68 -63 -6 c-56 -6 -64 -5 -69 12 -5 15 -14 18 -46
15 -26 -3 -65 5 -112 22 -70 26 -75 26 -117 11 -65 -23 -99 -20 -113 10 -16
36 11 71 79 102 82 38 126 40 206 9 l67 -25 0 28 0 28 93 6 c133 7 136 9 116
80 -18 68 -72 114 -150 131 -24 5 -31 20 -79 158 -176 508 -384 926 -556 1117
-27 30 -76 72 -108 93 -78 50 -145 53 -221 9z"/>
<path d="M13013 17165 c-152 -41 -277 -152 -298 -266 -15 -81 41 -170 134
-212 39 -18 67 -21 183 -21 l138 -1 0 27 c0 33 24 58 56 58 29 0 54 -47 54
-102 0 -47 52 -169 81 -191 22 -15 29 -16 52 -6 63 28 112 242 87 378 -21 115
-47 168 -119 241 -58 59 -75 70 -135 89 -78 24 -158 26 -233 6z"/>
<path d="M7687 15501 c-46 -22 -93 -66 -114 -106 -9 -16 -31 -73 -49 -125 -18
-52 -44 -117 -58 -144 -32 -62 -33 -110 -5 -277 l22 -126 -21 -29 c-24 -31
-142 -306 -167 -388 -9 -28 -26 -73 -38 -100 l-22 -49 35 -29 c47 -40 86 -59
120 -60 23 -1 31 -9 47 -47 11 -25 25 -86 31 -136 17 -140 26 -160 75 -184 78
-37 174 -54 312 -55 97 0 139 4 165 15 34 16 36 19 63 130 16 63 34 128 42
144 12 27 13 19 14 -90 1 -66 5 -126 10 -134 6 -9 32 -16 69 -19 63 -5 113 13
131 46 5 10 11 152 12 317 3 284 2 303 -19 365 -28 84 -71 152 -120 187 l-39
28 19 55 c11 30 22 89 25 130 4 62 1 86 -17 135 -52 142 -68 195 -80 270 -7
44 -21 99 -32 123 -27 57 -107 126 -174 151 -70 27 -182 27 -237 2z m180 -501
c3 -14 20 -50 37 -80 29 -52 31 -60 30 -160 -1 -58 -7 -127 -15 -155 -14 -49
-15 -50 -59 -55 -25 -3 -53 -4 -63 -1 -22 4 -57 70 -57 107 0 15 -13 41 -30
60 -16 19 -39 52 -50 74 -24 46 -72 210 -67 225 3 6 54 10 136 10 l132 0 6
-25z"/>
<path d="M10962 13824 c-97 -48 -169 -155 -213 -319 -19 -67 -22 -107 -22
-245 -1 -143 3 -180 25 -275 51 -219 133 -382 252 -501 39 -39 96 -84 126
-100 48 -25 66 -29 140 -29 63 0 94 5 118 18 l33 18 -70 35 c-183 92 -333 332
-397 639 -27 131 -25 380 4 488 27 100 74 195 124 252 l40 45 -54 0 c-38 0
-69 -8 -106 -26z"/>
<path d="M7845 13399 c-87 -48 -134 -74 -318 -174 -48 -26 -85 -51 -81 -56 3
-5 9 -9 14 -9 22 0 490 264 490 276 0 20 -6 18 -105 -37z"/>
<path d="M8198 13198 l-328 -190 0 -1285 0 -1284 43 25 c23 14 174 101 334
193 l292 168 1 1283 c0 705 -3 1282 -7 1281 -5 0 -155 -86 -335 -191z"/>
<path d="M6625 12727 c-23 -36 -64 -58 -141 -76 -61 -15 -112 -4 -167 33 -19
13 -38 22 -40 19 -3 -2 -38 -9 -78 -15 -92 -12 -109 -21 -109 -57 0 -69 86
-134 193 -147 53 -6 57 -5 97 29 39 33 102 57 151 57 21 0 21 0 -5 -34 -29
-38 -34 -62 -12 -49 18 10 114 130 132 165 15 28 19 108 7 108 -5 -1 -17 -15
-28 -33z"/>
<path d="M7220 12347 c0 -51 -36 -113 -98 -169 -76 -68 -132 -57 -132 26 0 40
-1 40 -34 -39 -18 -44 -47 -102 -64 -129 -18 -28 -32 -55 -32 -62 0 -51 107
-60 187 -16 80 43 88 52 131 142 l40 85 1 -45 c2 -41 3 -43 16 -26 8 10 14 37
14 60 0 22 6 61 15 85 27 73 16 131 -24 131 -17 0 -20 -7 -20 -43z"/>
<path d="M7205 11824 c-176 -102 -326 -192 -333 -202 -18 -23 -18 -1752 1
-1752 6 1 158 85 337 189 l325 187 3 882 c1 485 -1 882 -5 882 -5 -1 -152 -84
-328 -186z"/>
<path d="M10940 11909 c-220 -36 -401 -268 -476 -612 -30 -141 -42 -383 -25
-542 10 -94 39 -274 46 -283 1 -1 23 9 48 24 l47 26 59 -36 c65 -40 76 -43 68
-21 -5 11 0 13 21 9 39 -7 206 -22 213 -18 3 2 11 29 18 61 16 69 31 101 61
128 l23 20 -6 -37 c-3 -21 -4 -38 -2 -38 2 0 25 34 50 75 26 41 51 78 56 81
11 6 28 -35 40 -94 11 -56 -5 -94 -61 -147 -36 -35 -87 -113 -78 -119 76 -54
71 -53 251 -41 102 7 109 10 131 36 30 35 41 95 27 146 -19 65 -13 97 24 152
41 59 52 99 36 130 -18 33 -57 26 -108 -19 -81 -71 -139 -65 -242 25 -63 56
-115 87 -161 98 -41 10 -103 -9 -131 -41 -22 -25 -27 -41 -32 -116 -8 -110
-24 -138 -94 -167 -30 -12 -56 -20 -58 -17 -13 12 -37 213 -42 348 -17 441
116 818 340 968 54 36 53 36 -43 21z"/>
<path d="M9997 10669 c-10 -6 -83 -14 -163 -19 -127 -7 -151 -11 -199 -34 -66
-33 -90 -64 -111 -147 -33 -128 -3 -288 66 -354 63 -61 169 -15 227 99 22 44
24 54 14 88 -15 47 -7 62 29 54 20 -4 33 1 46 16 11 11 35 28 54 38 64 33 84
63 88 134 4 60 -11 136 -26 136 -4 0 -15 -5 -25 -11z"/>
<path d="M5193 10328 l-333 -192 0 -713 c0 -392 3 -713 7 -713 9 0 635 360
651 375 10 9 13 135 16 576 1 310 0 630 -3 711 l-6 147 -332 -191z"/>
<path d="M6193 10238 l-333 -192 0 -378 c0 -222 4 -378 9 -378 6 0 637 359
657 374 7 5 14 766 8 766 -5 0 -159 -87 -341 -192z"/>
<path d="M10715 10320 l-79 -47 -33 -119 c-18 -66 -33 -122 -33 -126 0 -17 31
-7 89 28 43 26 68 34 85 30 21 -5 25 0 41 41 17 44 17 51 3 91 -14 37 -14 49
-2 89 8 26 13 50 12 54 -2 3 -39 -15 -83 -41z"/>
<path d="M10225 10030 c-44 -10 -114 -33 -155 -51 -59 -25 -88 -32 -139 -32
-51 1 -74 -5 -117 -27 -93 -50 -193 -49 -228 2 -11 16 -18 18 -34 9 -12 -6
-33 -11 -48 -11 -63 0 -184 -87 -228 -163 -25 -44 -86 -213 -86 -239 0 -21 82
-63 169 -87 41 -11 79 -25 85 -31 5 -5 11 -56 14 -113 3 -78 0 -118 -12 -161
-9 -31 -15 -60 -12 -65 3 -4 6 -55 7 -114 1 -84 4 -107 15 -107 8 0 32 -13 54
-29 66 -48 119 -55 347 -48 185 6 209 9 261 31 65 28 61 12 44 176 -6 58 -9
187 -6 290 5 190 1 222 -51 385 -6 19 -1 20 129 20 96 0 139 4 148 13 23 23
17 214 -10 300 -26 83 -20 81 -147 52z"/>
<path d="M11677 9771 c-42 -27 -80 -51 -83 -54 -3 -3 -23 -68 -44 -144 -21
-76 -65 -237 -98 -358 -34 -121 -165 -600 -292 -1065 -370 -1352 -514 -1878
-589 -2150 -38 -140 -160 -583 -270 -985 -426 -1559 -644 -2350 -649 -2364 -3
-9 29 4 79 31 l84 45 28 99 c15 55 38 140 52 189 13 50 74 272 135 495 61 223
156 569 211 770 55 201 154 563 220 805 67 242 123 442 125 444 2 3 23 -14 47
-36 80 -79 232 -183 352 -243 286 -143 577 -198 985 -187 213 6 324 20 494 63
508 129 888 474 1176 1069 119 245 234 555 321 859 21 77 40 141 42 142 5 6
159 -194 234 -303 189 -274 347 -583 462 -903 22 -63 76 -241 120 -395 82
-292 253 -902 325 -1159 l41 -150 125 -72 c69 -40 126 -71 128 -69 2 1 -46
198 -107 436 -60 239 -178 704 -262 1034 -399 1579 -389 1538 -412 1563 -65
69 -1569 1567 -1576 1570 -9 3 -21 -346 -21 -578 l1 -145 212 -157 c187 -139
347 -268 355 -288 1 -3 -44 -32 -100 -62 -352 -192 -810 -317 -1305 -359 -179
-15 -643 -6 -803 15 -63 8 -172 25 -242 38 -104 18 -127 25 -123 38 2 8 95
346 205 750 111 404 246 899 301 1100 55 201 120 439 145 530 25 91 47 171 49
178 2 6 3 12 2 11 -1 0 -37 -22 -80 -48z"/>
<path d="M10503 9752 c-11 -7 -105 -333 -98 -340 2 -2 39 17 83 42 62 36 81
52 86 74 3 15 17 66 30 115 l25 87 -29 15 c-31 16 -77 19 -97 7z"/>
<path d="M9039 9033 c-111 -164 -271 -397 -354 -518 -494 -719 -685 -1001
-684 -1010 1 -5 67 -45 148 -87 l146 -77 119 74 c105 66 124 81 170 147 29 40
198 275 375 522 177 247 326 456 330 465 5 9 5 36 1 61 -4 25 -17 100 -29 168
-19 106 -21 151 -18 337 2 118 3 215 2 215 -2 0 -94 -134 -206 -297z"/>
<path d="M4183 9078 l-333 -193 0 -377 c0 -227 4 -378 9 -378 5 0 108 57 228
126 120 69 266 154 325 188 l108 61 0 96 c0 53 3 225 7 382 4 171 3 287 -3
287 -5 0 -159 -87 -341 -192z"/>
<path d="M10329 9158 c-6 -24 -30 -115 -54 -203 -24 -88 -42 -161 -40 -163 2
-2 39 17 82 42 l78 45 33 122 c37 137 39 127 -40 173 l-47 26 -12 -42z"/>
<path d="M9441 8814 c0 -11 3 -14 6 -6 3 7 2 16 -1 19 -3 4 -6 -2 -5 -13z"/>
<path d="M14260 8731 c0 -29 41 -92 258 -394 131 -183 322 -449 425 -592 l187
-260 110 -68 c61 -37 108 -61 104 -55 -4 7 -177 254 -383 548 -345 491 -385
544 -491 650 -111 111 -210 192 -210 171z"/>
<path d="M5503 8650 c-63 -13 -102 -37 -162 -99 -77 -80 -101 -136 -101 -236
0 -99 21 -183 63 -254 65 -108 124 -127 210 -70 81 54 125 136 106 200 -7 20
-9 45 -6 53 7 18 42 22 52 6 4 -7 23 4 46 25 21 19 44 35 49 35 16 0 90 71
106 101 32 63 2 144 -68 187 -69 42 -216 68 -295 52z"/>
<path d="M10213 8531 c4 -17 14 -88 23 -158 9 -71 17 -129 18 -130 0 0 69 -40
151 -88 83 -48 169 -98 193 -111 l42 -25 0 148 -1 148 -146 83 -147 83 -39
-38 -40 -38 7 29 c19 81 20 79 -25 105 l-42 23 6 -31z"/>
<path d="M14286 8460 c-10 -92 -46 -219 -86 -303 l-29 -62 56 -57 c50 -51 58
-56 67 -40 13 23 20 400 8 477 l-8 60 -8 -75z"/>
<path d="M6081 8144 c-20 -14 -251 -317 -251 -329 0 -3 8 -5 18 -5 10 0 60 58
131 154 62 85 121 156 130 158 27 7 450 -46 461 -58 7 -7 -54 -97 -210 -307
-121 -163 -220 -301 -220 -306 0 -36 33 -3 133 131 381 513 374 503 357 513
-9 5 -479 64 -515 65 -6 0 -21 -7 -34 -16z"/>
<path d="M10280 7778 c0 -17 2 -18 15 -8 8 7 15 14 15 15 0 2 -7 5 -15 9 -10
4 -15 -1 -15 -16z"/>
<path d="M9931 7697 c-14 -50 -27 -100 -29 -111 -5 -17 -1 -16 37 5 l42 24 -6
75 c-4 41 -10 81 -14 87 -3 7 -17 -29 -30 -80z"/>
<path d="M9238 7372 c-114 -114 -209 -209 -212 -212 -2 -3 -140 -540 -306
-1195 -165 -654 -337 -1331 -381 -1504 -44 -172 -79 -315 -77 -317 2 -1 59 29
128 69 120 70 125 73 137 117 8 25 101 360 209 745 210 751 271 949 359 1151
69 159 177 366 254 489 47 74 64 114 90 209 l32 118 -16 156 c-17 162 -22 352
-10 371 3 6 5 11 3 11 -2 0 -96 -93 -210 -208z"/>
<path d="M10570 7377 c0 -7 69 -47 81 -47 20 0 8 19 -18 28 -16 5 -36 13 -45
17 -10 4 -18 5 -18 2z"/>
<path d="M9837 7353 c-2 -5 -24 -82 -48 -172 l-44 -163 -47 -24 c-40 -20 -49
-30 -58 -66 -7 -24 -21 -51 -33 -60 -30 -24 -95 -24 -104 0 -6 14 -8 13 -14
-8 -13 -47 -9 -79 14 -106 45 -52 124 -31 274 75 39 27 80 63 92 80 23 32 28
90 9 109 -23 23 21 24 58 1 l36 -22 -6 69 c-3 38 -8 108 -11 155 l-7 87 -48
26 c-52 28 -57 30 -63 19z"/>
<path d="M10192 7148 c-1 -7 -3 -83 -5 -168 l-4 -155 -28 -14 c-15 -7 -56 -18
-91 -24 -62 -11 -64 -12 -65 -42 -5 -93 9 -120 67 -131 50 -9 82 2 210 73
l118 66 43 -23 c24 -13 46 -21 49 -18 6 6 64 218 64 234 0 9 -339 214 -353
214 -2 0 -4 -6 -5 -12z"/>
<path d="M16310 6876 c0 -40 5 -57 19 -70 19 -17 21 -16 48 25 19 28 24 44 16
46 -7 3 -28 15 -48 28 l-35 24 0 -53z"/>
<path d="M17423 6897 c-46 -30 -46 -34 -5 -85 18 -23 18 -23 36 -4 12 15 16
33 14 69 l-3 49 -42 -29z"/>
<path d="M16769 6787 c-59 -31 -77 -64 -60 -105 l13 -31 42 22 c55 29 182 31
244 3 34 -15 44 -17 57 -6 20 16 19 50 -1 79 -44 62 -208 83 -295 38z"/>
<path d="M9660 6712 c-5 -20 -30 -111 -54 -201 -25 -91 -43 -167 -41 -169 2
-3 39 16 82 41 l77 46 33 122 c19 67 30 126 26 130 -4 4 -32 21 -60 38 l-52
30 -11 -37z"/>
<path d="M16130 6624 c0 -58 13 -82 55 -100 47 -19 146 -18 189 3 l35 16 -24
29 c-14 16 -25 33 -25 37 0 5 -35 10 -79 13 -56 3 -89 11 -115 26 l-36 21 0
-45z"/>
<path d="M17611 6646 c-23 -13 -58 -21 -110 -24 -80 -4 -87 -9 -119 -74 -2 -4
10 -14 27 -22 38 -20 140 -21 186 -2 42 18 57 45 53 99 l-3 43 -34 -20z"/>
<path d="M5194 6498 c-25 -126 -22 -280 9 -493 61 -412 66 -548 25 -704 -35
-130 -37 -252 -8 -531 23 -230 38 -328 52 -336 18 -11 78 -6 101 9 28 18 68
171 121 467 45 249 62 385 75 590 20 299 34 461 41 465 11 7 117 -316 145
-443 36 -155 40 -257 20 -472 -11 -125 -15 -219 -10 -290 12 -183 32 -390 39
-397 11 -11 99 -3 149 13 l47 16 0 111 c0 188 26 411 82 707 32 172 30 434 -6
720 -33 264 -49 362 -82 511 l-27 115 -41 -20 c-36 -18 -71 -22 -269 -30 -256
-10 -313 -2 -391 55 -22 16 -43 29 -47 29 -3 0 -15 -42 -25 -92z"/>
<path d="M3132 6529 c7 -64 25 -78 55 -41 12 15 22 30 23 33 0 3 -19 18 -41
32 l-42 28 5 -52z"/>
<path d="M4078 6551 l-37 -23 22 -33 c33 -50 63 -22 55 51 l-3 29 -37 -24z"/>
<path d="M9985 6549 c11 -38 69 -176 113 -270 l39 -86 89 -51 c48 -28 90 -50
92 -48 9 10 63 229 59 241 -3 7 -90 61 -194 120 -103 59 -192 110 -197 113 -4
2 -5 -6 -1 -19z"/>
<path d="M3547 6466 c-53 -19 -77 -44 -77 -78 0 -36 17 -43 63 -23 48 20 136
19 188 -2 40 -16 42 -15 55 2 19 26 18 33 -14 65 -48 47 -139 63 -215 36z"/>
<path d="M16559 6399 c-69 -37 -136 -39 -202 -5 l-47 23 0 -49 c0 -40 5 -53
26 -73 56 -52 139 -55 226 -8 l46 25 76 -18 76 -18 0 -42 c0 -49 23 -69 89
-80 102 -16 181 22 181 89 0 35 0 35 71 52 l70 17 47 -25 c84 -46 165 -44 226
4 22 18 26 28 26 74 l0 54 -42 -24 c-61 -35 -128 -34 -201 3 l-56 29 -68 -18
-68 -17 -6 -42 c-3 -24 -14 -49 -23 -56 -26 -19 -110 -35 -148 -28 -84 15
-108 36 -108 98 0 31 -3 36 -23 36 -13 0 -44 6 -69 14 -43 13 -47 12 -99 -15z"/>
<path d="M2980 6317 c0 -64 31 -90 114 -95 48 -3 70 0 89 13 l26 17 -22 34
c-21 33 -24 34 -88 34 -52 0 -72 5 -93 21 l-26 20 0 -44z"/>
<path d="M4240 6335 c-14 -8 -54 -15 -90 -15 -63 -1 -66 -2 -87 -35 l-21 -34
24 -15 c46 -31 185 -12 200 27 3 8 4 31 2 50 -3 35 -4 35 -28 22z"/>
<path d="M3130 6105 c0 -54 21 -79 80 -95 48 -13 88 -6 136 22 32 19 39 19 99
7 64 -12 65 -13 65 -45 0 -49 37 -74 112 -74 87 0 118 20 118 76 0 29 2 31 63
43 59 12 65 11 117 -13 64 -30 85 -32 140 -10 47 19 60 38 60 89 l0 35 -40
-20 c-52 -27 -110 -25 -168 4 -44 23 -51 23 -102 12 -51 -12 -55 -15 -60 -46
-6 -42 -44 -71 -103 -77 -49 -6 -108 10 -127 33 -7 8 -15 28 -19 45 -6 28 -12
33 -59 45 -49 13 -54 12 -98 -11 -63 -34 -129 -34 -178 0 l-36 24 0 -44z"/>
<path d="M9489 6088 c-6 -24 -31 -115 -55 -202 -24 -88 -42 -161 -40 -164 2
-2 39 17 82 41 l78 45 33 119 c17 65 32 123 33 130 0 9 -99 73 -114 73 -3 0
-10 -19 -17 -42z"/>
<path d="M9278 5317 c-30 -111 -54 -203 -53 -205 1 -1 39 18 83 44 l80 47 31
112 c17 62 31 118 31 126 0 8 -26 28 -58 46 l-59 32 -55 -202z"/>
<path d="M9132 4783 c-17 -65 -43 -158 -56 -206 l-24 -88 21 14 c12 8 48 29
80 47 31 18 61 40 66 49 5 9 22 66 39 128 l30 112 -54 31 c-29 16 -57 30 -62
30 -4 0 -22 -53 -40 -117z"/>
<path d="M12450 4397 c0 -28 6 -49 15 -57 9 -7 17 -11 18 -9 1 2 12 18 23 34
l22 31 -39 22 -39 23 0 -44z"/>
<path d="M13397 4420 c-41 -25 -41 -26 -17 -60 20 -28 24 -30 37 -17 9 9 13
29 11 54 l-3 40 -28 -17z"/>
<path d="M12867 4336 c-67 -24 -98 -66 -78 -105 11 -20 11 -20 57 1 55 24 149
22 201 -4 35 -18 53 -9 53 27 0 36 -29 64 -82 80 -63 18 -101 18 -151 1z"/>
<path d="M8986 4248 c-29 -100 -96 -348 -96 -353 0 -2 38 18 84 46 l83 50 31
117 32 117 -22 15 c-12 8 -38 25 -59 38 l-38 23 -15 -53z"/>
<path d="M12300 4176 c0 -64 30 -86 119 -86 47 0 72 5 88 18 l22 17 -23 26
c-18 21 -34 27 -91 32 -37 4 -78 13 -91 22 -24 15 -24 15 -24 -29z"/>
<path d="M13554 4204 c-12 -8 -53 -18 -92 -21 -63 -5 -71 -8 -83 -32 -7 -14
-15 -29 -16 -32 -2 -3 8 -11 22 -17 37 -17 131 -15 165 3 27 14 30 20 30 65 0
28 -1 50 -2 49 -2 0 -13 -7 -24 -15z"/>
<path d="M12659 3994 c-55 -29 -122 -31 -172 -5 l-38 19 3 -45 c4 -56 34 -83
101 -90 36 -4 56 0 99 21 52 26 55 27 113 13 59 -13 60 -14 63 -50 4 -51 38
-72 113 -72 75 0 113 26 117 78 3 31 7 37 26 37 13 0 37 5 55 11 28 10 40 8
90 -15 69 -31 101 -32 159 -6 41 19 42 20 42 69 l0 51 -32 -20 c-47 -28 -121
-26 -175 4 -41 24 -43 24 -102 9 -59 -15 -61 -16 -61 -49 0 -40 -29 -63 -89
-71 -87 -12 -151 20 -151 76 0 27 -4 30 -58 43 -57 14 -61 14 -103 -8z"/>
<path d="M8830 3685 c0 -4 -29 -113 -65 -242 -36 -130 -63 -238 -61 -240 2 -2
39 15 81 39 l78 43 44 160 c23 88 43 165 43 170 0 6 -27 25 -60 43 -33 19 -60
30 -60 27z"/>
<path d="M10563 1524 c-3 -9 -1 -25 5 -35 16 -25 16 -26 -15 -32 -42 -9 -60
-24 -47 -37 8 -8 19 -8 40 0 16 7 55 12 87 12 69 0 80 22 16 33 -34 6 -40 10
-36 27 3 11 3 26 0 34 -7 19 -42 18 -50 -2z"/>
<path d="M10785 1410 c-4 -6 13 -32 38 -58 24 -27 46 -54 49 -62 2 -8 11 -11
22 -7 16 6 16 9 -4 36 l-21 30 21 11 c24 13 27 50 4 50 -9 0 -22 -8 -29 -17
-11 -15 -15 -15 -43 5 -20 15 -33 19 -37 12z"/>
<path d="M11147 1399 c-23 -14 -47 -69 -47 -109 0 -25 -4 -30 -25 -30 -21 0
-25 -5 -25 -30 0 -25 4 -30 25 -30 l25 0 0 -110 0 -110 40 0 39 0 3 108 3 107
43 3 c39 3 42 5 42 32 0 27 -3 29 -42 32 -36 3 -44 7 -46 26 -5 36 17 55 56
49 33 -6 33 -6 30 31 -3 37 -3 37 -53 39 -27 2 -58 -2 -68 -8z"/>
<path d="M12446 1394 c-19 -18 -21 -55 -4 -72 28 -28 88 -2 88 38 0 24 -26 50
-50 50 -10 0 -26 -7 -34 -16z"/>
<path d="M10525 1381 c-85 -39 -134 -117 -135 -213 l0 -57 38 -10 c56 -16 229
-13 297 4 81 22 139 55 143 83 9 61 -59 160 -133 193 -54 25 -157 25 -210 0z
m62 -106 c66 -47 8 -150 -70 -123 -50 18 -63 75 -25 115 25 26 64 30 95 8z
m183 -5 c11 -11 20 -27 20 -35 0 -20 -36 -55 -57 -55 -23 0 -53 30 -53 53 0
26 28 57 52 57 10 0 27 -9 38 -20z"/>
<path d="M12570 1190 l0 -210 40 0 40 0 0 52 0 52 53 -52 c49 -49 56 -52 102
-52 l49 0 -55 58 c-93 96 -91 84 -18 158 l63 64 -49 0 c-45 0 -53 -4 -97 -47
l-48 -47 0 117 0 117 -40 0 -40 0 0 -210z"/>
<path d="M7380 1298 l0 -71 -21 19 c-15 14 -36 19 -76 19 -49 0 -58 -3 -83
-32 -16 -18 -32 -48 -36 -68 -25 -133 72 -230 176 -176 33 17 40 18 40 6 0 -9
10 -15 25 -15 l25 0 0 195 0 195 -25 0 c-24 0 -25 -2 -25 -72z m-26 -89 c24
-19 26 -27 26 -89 0 -64 -2 -71 -26 -87 -72 -47 -144 -2 -144 88 0 42 5 55 29
80 35 35 77 38 115 8z"/>
<path d="M9340 1300 l0 -70 -32 20 c-91 56 -188 -10 -188 -127 0 -122 103
-187 196 -126 22 14 24 14 24 -1 0 -9 8 -16 20 -16 19 0 20 7 20 195 0 188 -1
195 -20 195 -18 0 -20 -7 -20 -70z m-26 -91 c25 -20 27 -25 24 -93 l-3 -71
-38 -18 c-66 -33 -132 13 -132 92 0 93 82 142 149 90z"/>
<path d="M9590 1175 l0 -195 25 0 c15 0 25 6 25 14 0 10 9 9 39 -6 101 -50
196 39 177 167 -10 67 -48 105 -110 112 -38 5 -53 2 -77 -16 l-29 -22 0 71 c0
68 -1 70 -25 70 l-25 0 0 -195z m192 25 c28 -29 30 -35 26 -86 -5 -62 -26 -90
-73 -99 -20 -4 -40 1 -62 14 -32 20 -33 23 -33 90 0 63 2 71 26 90 39 30 80
27 116 -9z"/>
<path d="M10382 1343 c-17 -23 -23 -26 -33 -15 -20 19 -49 15 -49 -7 0 -13 8
-21 23 -23 23 -4 24 -6 13 -49 -4 -19 -1 -29 8 -32 10 -4 19 6 27 31 6 20 22
52 36 70 22 30 24 52 3 52 -4 0 -17 -12 -28 -27z"/>
<path d="M8067 1346 c-3 -8 0 -21 6 -31 17 -22 47 -9 47 21 0 19 -5 24 -24 24
-13 0 -26 -6 -29 -14z"/>
<path d="M7553 1250 c-67 -40 -88 -117 -54 -194 16 -37 29 -51 63 -66 54 -25
82 -25 135 0 31 14 41 23 37 34 -8 20 -14 20 -50 1 -54 -28 -109 -14 -137 35
-29 48 -25 50 98 50 130 0 131 0 99 80 -30 73 -122 103 -191 60z m132 -45 c14
-13 25 -33 25 -45 0 -19 -6 -20 -90 -20 -101 0 -108 7 -64 59 34 41 92 44 129
6z"/>
<path d="M7838 1255 c-29 -16 -42 -47 -36 -86 3 -26 42 -50 118 -71 36 -10 46
-18 48 -37 7 -50 -65 -68 -125 -32 -28 18 -33 18 -44 4 -11 -13 -10 -18 6 -29
47 -35 137 -40 177 -10 26 19 39 62 28 90 -11 31 -44 53 -93 61 -89 17 -102
77 -18 83 26 2 52 -3 66 -12 19 -13 25 -13 34 -2 32 39 -104 73 -161 41z"/>
<path d="M8234 1251 c-20 -12 -38 -36 -49 -65 -38 -100 16 -206 104 -206 23 0
55 7 71 15 30 15 30 15 30 -10 0 -38 -15 -61 -49 -75 -36 -14 -93 -6 -111 15
-10 12 -16 13 -26 4 -8 -6 -14 -15 -14 -20 0 -19 62 -39 119 -39 53 0 65 4 93
29 l33 29 3 166 3 166 -25 0 c-17 0 -26 -6 -26 -16 0 -13 -5 -12 -26 5 -34 26
-89 27 -130 2z m126 -36 c29 -15 30 -18 30 -90 0 -65 -3 -76 -22 -89 -12 -9
-39 -16 -59 -16 -30 0 -43 7 -64 32 -24 28 -27 39 -22 82 8 82 67 117 137 81z"/>
<path d="M8610 1263 c-8 -3 -23 -12 -32 -21 -16 -14 -18 -13 -18 1 0 11 -8 17
-25 17 l-25 0 0 -140 0 -140 25 0 25 0 0 110 0 109 30 16 c39 20 73 19 93 -3
14 -15 17 -40 17 -125 l0 -107 25 0 25 0 0 104 c0 111 -11 161 -40 176 -20 11
-75 12 -100 3z"/>
<path d="M8873 1250 c-67 -40 -88 -117 -54 -194 35 -79 126 -105 213 -60 17 9
25 19 22 29 -8 19 -15 19 -50 0 -54 -28 -109 -14 -137 35 -29 48 -25 50 98 50
130 0 131 0 99 80 -30 73 -122 103 -191 60z m132 -45 c14 -13 25 -33 25 -45 0
-19 -6 -20 -90 -20 -101 0 -108 7 -64 59 34 41 92 44 129 6z"/>
<path d="M11392 1254 c-12 -8 -22 -10 -22 -5 0 6 -16 11 -35 11 l-35 0 0 -140
0 -140 40 0 40 0 0 93 c0 101 12 127 58 127 21 0 67 52 55 64 -12 12 -79 6
-101 -10z"/>
<path d="M11544 1251 c-63 -39 -85 -147 -41 -212 32 -49 80 -71 144 -66 28 2
63 11 77 21 26 16 26 17 9 41 -13 18 -24 23 -38 19 -57 -18 -93 -16 -114 5
-12 12 -19 26 -16 31 4 6 49 10 102 10 l96 0 -5 52 c-5 44 -11 57 -42 85 -31
29 -43 33 -88 33 -34 0 -64 -7 -84 -19z m124 -63 c6 -6 12 -17 12 -24 0 -10
-16 -14 -60 -14 -57 0 -60 1 -50 20 20 38 62 46 98 18z"/>
<path d="M11853 1250 c-18 -10 -39 -33 -48 -49 -21 -42 -19 -129 4 -167 38
-62 128 -81 210 -43 l45 20 -26 25 c-21 22 -29 24 -46 15 -32 -17 -87 -13
-105 7 -33 36 -22 42 83 42 l100 0 0 31 c0 45 -29 98 -64 120 -41 25 -112 25
-153 -1z m111 -61 c14 -11 26 -25 26 -30 0 -5 -27 -9 -60 -9 -33 0 -60 4 -60
8 0 13 23 39 40 45 24 9 26 8 54 -14z"/>
<path d="M12202 1254 c-12 -8 -22 -10 -22 -5 0 6 -18 11 -40 11 l-40 0 0 -200
0 -200 40 0 40 0 0 70 0 71 30 -16 c37 -19 73 -19 116 1 98 47 101 219 5 269
-39 19 -100 19 -129 -1z m98 -74 c31 -31 27 -93 -6 -119 -15 -12 -35 -21 -46
-21 -31 0 -68 45 -68 81 0 67 76 103 120 59z"/>
<path d="M8070 1120 l0 -140 25 0 25 0 0 140 0 140 -25 0 -25 0 0 -140z"/>
<path d="M9880 1251 c0 -4 25 -68 56 -141 55 -131 56 -135 40 -166 -11 -23
-23 -33 -43 -36 -17 -2 -29 -10 -31 -20 -5 -25 68 -25 91 0 15 16 157 346 157
364 0 4 -10 8 -22 8 -20 0 -29 -16 -67 -111 -28 -71 -46 -106 -52 -98 -4 7
-25 57 -46 111 -32 84 -41 98 -60 98 -13 0 -23 -4 -23 -9z"/>
<path d="M12440 1120 l0 -140 40 0 40 0 0 140 0 140 -40 0 -40 0 0 -140z"/>
<path d="M10780 1092 c-59 -24 -78 -26 -212 -27 -82 0 -148 -3 -148 -7 0 -3
20 -24 45 -46 111 -98 289 -75 366 46 45 71 45 72 -51 34z"/>
</g>
</svg>
